<?xml version="1.0" encoding="UTF-8" standalone="no" ?>
<!DOCTYPE svg PUBLIC "-//W3C//DTD SVG 1.1//EN" "http://www.w3.org/Graphics/SVG/1.1/DTD/svg11.dtd">
<svg xmlns="http://www.w3.org/2000/svg" xmlns:xlink="http://www.w3.org/1999/xlink" version="1.1" width="500" height="500" viewBox="0 0 500 500" xml:space="preserve">
<desc>Created with Fabric.js 3.6.3</desc>
<defs>
</defs>
<g transform="matrix(1.8875128115189217 0 0 1.8875128115189217 250 250)"  >
<g style=""   >
		<g transform="matrix(3.3252067035094126 0 0 3.325206703509412 0 1.421085e-14)"  >
<path style="stroke: none; stroke-width: 0; stroke-dasharray: none; stroke-linecap: butt; stroke-dashoffset: 0; stroke-linejoin: miter; stroke-miterlimit: 4; fill: rgb(37,6,77); fill-rule: nonzero; opacity: 1;"  transform=" translate(-49.5605, -48.8145)" d="M 88.048 48.812 C 88.048 70.07 70.815 87.3 49.56 87.3 c -21.255 0 -38.487 -17.23 -38.487 -38.488 c 0 -21.253 17.232 -38.483 38.487 -38.483 C 70.815 10.329 88.048 27.559 88.048 48.812 z" stroke-linecap="round" />
</g>
		<g transform="matrix(1.8476530866553105 0 0 1.8476530866553105 4.263256e-14 -1.421085e-14)"  >
<g style=""   >
		<g transform="matrix(1.3333333333333335 0 0 1.3333333333333335 0.6644324472018468 0.655804868467591)"  >
<path style="stroke: none; stroke-width: 1; stroke-dasharray: none; stroke-linecap: butt; stroke-dashoffset: 0; stroke-linejoin: miter; stroke-miterlimit: 4; fill: rgb(240,231,253); fill-rule: nonzero; opacity: 1;"  transform=" translate(-49.99832433540138, -49.991853651350695)" d="m 71.219 29.398 c -6.3008 -5.9219 -14.559 -8.8789 -23.211 -8.3398 c -15.691 0.98828 -28.141 13.57 -28.961 29.27 c -0.55859 10.75 4.3711 20.852 13.199 27.031 c 1.5312 1.0703 3.3281 1.6289 5.2188 1.6289 c 2.8594 0 5.6016 -1.3711 7.3086 -3.6719 l 4.4102 -5.9414 c 0.39844 -0.53906 1.1992 -0.53906 1.6016 0 l 4.4297 5.9414 c 1.7109 2.2891 4.4492 3.6602 7.3281 3.6602 c 1.8984 0 3.7188 -0.57812 5.2695 -1.6602 c 8.25 -5.8008 13.18 -15.27 13.18 -25.34 c 0 -8.5195 -3.5703 -16.762 -9.7812 -22.602 z m -6.8516 43.031 c -0.53125 0.37891 -1.1602 0.55078 -1.7891 0.55078 c -0.96875 0 -1.9414 -0.42969 -2.5391 -1.2383 l -4.4297 -5.9414 c -1.3086 -1.7617 -3.4102 -2.8086 -5.6016 -2.8086 c -2.1914 0 -4.2891 1.0508 -5.6016 2.8086 l -4.4297 5.9414 c -0.96875 1.3008 -2.9688 1.6211 -4.2891 0.69922 c -7.1211 -4.9805 -11.102 -13.129 -10.641 -21.801 c 0.64844 -12.449 10.91 -22.809 23.34 -23.602 c 6.9883 -0.44141 13.641 1.9414 18.73 6.7188 c 5.0898 4.7812 7.8906 11.25 7.8906 18.23 c 0 8.1094 -3.9688 15.75 -10.629 20.43 z" stroke-linecap="round" />
</g>
		<g transform="matrix(1.3333333333333335 0 0 1.3333333333333335 0.664033333333343 -2.671085598414754)"  >
<path style="stroke: none; stroke-width: 1; stroke-dasharray: none; stroke-linecap: butt; stroke-dashoffset: 0; stroke-linejoin: miter; stroke-miterlimit: 4; fill: rgb(240,231,253); fill-rule: nonzero; opacity: 1;"  transform=" translate(-49.998025000000005, -47.49668580118893)" d="m 50 37 c -8.2695 0 -15 6.7305 -15 15 c 0 1.2617 0.17188 2.5312 0.48828 3.7695 c 0.42188 1.6016 2.0703 2.5586 3.6719 2.1289 c 1.6016 -0.42188 2.5586 -2.0703 2.1289 -3.6719 c -0.19922 -0.73828 -0.28906 -1.4883 -0.28906 -2.2305 c 0 -4.9609 4.0391 -9 9 -9 s 9 4.0391 9 9 c 0 0.73828 -0.10156 1.4883 -0.30078 2.2305 c -0.42188 1.6016 0.53906 3.2383 2.1406 3.6719 c 0.25 0.070312 0.51172 0.10156 0.76953 0.10156 c 1.3594 0 2.5508 -0.92188 2.8984 -2.2383 c 0.32813 -1.2383 0.48828 -2.5117 0.48828 -3.7695 c 0 -8.2695 -6.7305 -15 -15 -15 z" stroke-linecap="round" />
</g>
</g>
</g>
</g>
</g>
</svg>